<?xml version="1.0" standalone="no"?>
<!DOCTYPE svg PUBLIC "-//W3C//DTD SVG 20010904//EN"
 "http://www.w3.org/TR/2001/REC-SVG-20010904/DTD/svg10.dtd">
<svg version="1.0" xmlns="http://www.w3.org/2000/svg"
 width="1280.000000pt" height="1216.000000pt" viewBox="0 0 1280.000000 1216.000000"
 preserveAspectRatio="xMidYMid meet">
<metadata>
Created by potrace 1.15, written by Peter Selinger 2001-2017
</metadata>
<g transform="translate(0.000000,1216.000000) scale(0.100000,-0.100000)"
fill="#000000" stroke="none">
<path d="M6177 12145 c-48 -8 -350 -84 -670 -170 l-582 -155 -610 0 c-679 0
-725 -3 -920 -65 -264 -82 -511 -256 -677 -475 l-49 -65 -287 -76 c-1001 -267
-1397 -375 -1472 -401 -388 -136 -713 -468 -839 -856 -51 -158 -66 -258 -65
-437 1 -112 6 -196 17 -245 8 -41 77 -304 152 -585 267 -998 355 -1327 505
-1885 83 -311 200 -747 260 -970 60 -223 168 -625 240 -895 72 -269 180 -672
240 -895 60 -223 177 -659 260 -970 83 -311 209 -781 280 -1045 71 -264 160
-597 199 -740 38 -143 81 -291 95 -329 119 -316 375 -594 681 -742 124 -59
230 -95 355 -121 107 -22 373 -24 475 -4 65 12 684 176 2078 549 l557 150 143
-38 c78 -22 464 -125 857 -230 393 -105 899 -241 1125 -301 526 -142 533 -143
735 -143 241 0 387 33 605 138 254 122 478 338 608 585 86 163 30 -33 607
2121 60 223 177 659 260 970 83 311 200 747 260 970 318 1187 597 2228 755
2815 303 1132 415 1555 427 1620 7 39 13 142 13 230 0 221 -36 383 -130 581
-152 324 -439 583 -775 702 -72 25 -568 160 -1546 421 l-211 56 -61 76 c-183
231 -403 383 -679 469 -183 56 -237 60 -909 60 l-610 0 -545 146 c-299 80
-584 155 -634 165 -122 27 -396 34 -518 14z m-1127 -1167 c0 -10 -70 -274
-314 -1183 -124 -463 -364 -1358 -517 -1930 -233 -869 -374 -1393 -498 -1857
-71 -266 -173 -645 -226 -843 -53 -198 -98 -364 -100 -370 -2 -5 -3 1122 -2
2505 l2 2515 22 90 c63 265 185 487 368 670 231 232 511 367 835 404 120 13
430 13 430 -1z m2140 -127 c47 -10 202 -51 345 -90 224 -60 1099 -295 2790
-747 475 -128 514 -140 632 -194 398 -185 684 -558 769 -1005 23 -122 23 -350
0 -469 -9 -49 -49 -206 -87 -350 -124 -463 -367 -1368 -499 -1861 -71 -264
-197 -734 -280 -1045 -83 -311 -200 -747 -260 -970 -497 -1855 -508 -1897
-537 -1970 -126 -317 -382 -592 -686 -735 -182 -86 -331 -123 -528 -132 -239
-10 -190 -21 -1424 310 -776 208 -1457 391 -2045 548 -493 132 -625 176 -750
249 -407 238 -665 661 -686 1125 -11 228 -11 229 250 1200 76 281 205 762 287
1070 83 308 200 745 260 970 61 226 168 626 239 890 71 264 197 734 280 1045
83 311 191 714 240 895 48 182 99 359 113 395 35 94 102 223 160 310 63 95
259 290 357 355 159 105 354 185 540 219 119 22 402 15 520 -13z m-4750 -3698
c0 -1697 -3 -3084 -6 -3081 -3 3 -32 106 -65 229 -133 496 -367 1367 -469
1749 -221 825 -375 1398 -507 1890 -200 743 -185 672 -187 900 -1 156 3 212
18 279 112 511 459 894 946 1044 119 37 249 75 263 76 4 1 7 -1388 7 -3086z"/>
<path d="M8960 9889 c-40 -111 -149 -350 -236 -518 -430 -831 -1050 -1573
-1649 -1976 -303 -203 -564 -310 -862 -350 -250 -35 -420 -122 -600 -308 -179
-185 -305 -425 -369 -702 -27 -113 -27 -404 0 -525 117 -536 530 -939 1063
-1036 115 -20 339 -20 458 1 176 31 368 111 522 217 43 29 124 98 179 154
l101 100 -55 -105 c-300 -573 -638 -1052 -1021 -1443 -63 -65 -113 -120 -110
-122 2 -2 347 -96 767 -208 536 -144 762 -200 762 -191 0 7 -11 55 -25 106
-76 289 -135 658 -166 1047 -12 164 -13 753 0 845 5 33 9 47 10 30 2 -56 50
-223 90 -314 182 -424 547 -711 1000 -786 123 -21 364 -16 476 8 461 103 835
434 979 867 115 346 99 745 -42 1025 -72 144 -133 214 -302 351 -216 172 -367
359 -514 636 -201 378 -351 874 -431 1431 -46 319 -59 516 -59 892 -1 355 8
505 45 784 10 80 17 146 15 148 -2 2 -13 -24 -26 -58z"/>
</g>
</svg>
