<?xml version="1.0" standalone="no"?>
<!DOCTYPE svg PUBLIC "-//W3C//DTD SVG 20010904//EN"
 "http://www.w3.org/TR/2001/REC-SVG-20010904/DTD/svg10.dtd">
<svg version="1.0" xmlns="http://www.w3.org/2000/svg"
 width="1280.000000pt" height="998.000000pt" viewBox="0 0 1280.000000 998.000000"
 preserveAspectRatio="xMidYMid meet">
<metadata>
Created by potrace 1.15, written by Peter Selinger 2001-2017
</metadata>
<g transform="translate(0.000000,998.000000) scale(0.100000,-0.100000)"
fill="#000000" stroke="none">
<path d="M2993 9970 c-307 -19 -480 -60 -819 -196 -131 -52 -345 -134 -474
-180 -316 -114 -474 -174 -665 -251 -88 -36 -223 -88 -300 -115 -170 -60 -325
-133 -382 -179 -55 -45 -203 -232 -232 -295 -13 -27 -32 -59 -41 -72 -10 -12
-31 -73 -46 -135 l-29 -112 0 -1115 c0 -894 4 -1193 17 -1510 10 -217 20 -447
23 -511 4 -92 11 -134 35 -207 16 -50 30 -101 30 -113 0 -37 60 -136 121 -198
134 -138 268 -210 504 -270 88 -22 185 -46 215 -52 88 -18 757 -176 970 -229
240 -60 845 -204 920 -219 30 -6 163 -25 295 -42 301 -40 559 -45 720 -15 136
25 267 69 345 115 36 22 76 42 90 46 28 8 365 184 535 280 411 231 855 490
974 567 81 53 110 59 142 27 19 -19 21 -29 16 -103 -3 -44 -10 -115 -16 -156
-22 -161 -11 -1559 20 -2570 l11 -375 70 -150 c39 -82 92 -179 118 -215 57
-76 196 -213 260 -257 85 -56 461 -242 1081 -534 81 -38 173 -85 205 -105 109
-66 359 -180 625 -285 53 -20 127 -53 165 -72 88 -44 239 -101 357 -133 184
-51 632 -43 832 15 55 16 172 46 260 66 88 21 223 58 300 83 77 24 178 55 225
67 91 23 415 119 648 191 78 24 194 57 258 74 63 17 159 47 212 66 53 19 187
62 296 95 110 33 224 73 253 87 80 41 172 115 307 247 186 182 248 288 306
519 29 119 32 148 42 395 19 488 -3 1715 -42 2381 -11 185 -44 401 -81 532
-29 100 -104 206 -203 285 -101 80 -261 177 -329 199 -106 34 -837 324 -952
377 -66 31 -147 63 -180 73 -33 9 -233 79 -445 156 -524 190 -694 239 -887
258 -133 12 -384 13 -438 0 -22 -5 -107 -14 -190 -20 -118 -9 -249 -32 -615
-106 -256 -52 -499 -101 -540 -109 -187 -35 -237 -45 -420 -84 -107 -22 -265
-52 -350 -66 -201 -33 -298 -56 -447 -107 -101 -34 -125 -39 -138 -28 -22 18
-19 42 19 122 50 109 67 193 76 383 13 246 12 1115 -1 1900 l-11 680 -34 132
c-19 73 -49 168 -68 211 -107 255 -293 416 -556 480 -218 54 -270 65 -335 73
-38 5 -115 21 -170 34 -55 14 -210 40 -345 60 -135 19 -344 50 -465 70 -121
20 -348 56 -505 80 -157 24 -301 49 -320 56 -44 14 -641 21 -827 9z m257 -330
c144 -15 238 -31 257 -45 24 -18 22 -80 -3 -105 -32 -33 -202 -70 -319 -70
-116 0 -183 10 -284 40 -77 24 -111 50 -111 85 0 80 203 121 460 95z m2968
-328 c29 -19 172 -209 172 -229 0 -33 -35 -37 -104 -13 -74 25 -157 26 -227 1
-30 -10 -146 -60 -259 -111 -113 -51 -263 -118 -335 -150 -71 -31 -182 -81
-245 -110 -63 -29 -194 -88 -290 -132 -96 -44 -209 -96 -250 -115 -41 -19
-136 -55 -210 -79 -74 -25 -161 -59 -192 -76 -82 -44 -164 -129 -236 -244
-140 -227 -149 -279 -162 -979 -10 -485 -2 -993 20 -1290 5 -71 14 -281 20
-465 5 -184 15 -407 21 -495 10 -155 9 -163 -15 -260 -22 -89 -28 -102 -61
-129 -20 -16 -47 -50 -60 -75 -53 -106 -230 -234 -358 -261 -54 -11 -107 -2
-107 19 0 13 35 43 120 103 117 83 206 207 267 373 17 47 18 94 15 820 -4 968
-17 1553 -37 1659 -8 43 -15 105 -15 139 -1 120 -23 204 -93 347 -107 219
-211 342 -390 458 -162 105 -220 122 -687 206 -168 31 -350 65 -405 76 -169
35 -662 128 -820 154 -82 14 -184 35 -225 46 -150 42 -238 52 -375 47 -187 -7
-279 -38 -399 -131 -33 -25 -68 -46 -77 -46 -25 0 -42 36 -35 74 12 61 56 115
121 147 124 61 436 108 641 96 55 -3 323 -42 595 -86 477 -78 625 -101 979
-156 91 -13 264 -43 385 -66 265 -49 362 -57 696 -58 l255 -1 145 35 c262 64
506 152 883 319 71 32 219 95 330 141 111 46 278 121 371 167 94 46 237 112
320 148 148 64 174 81 248 169 18 22 43 27 65 13z m-2558 -337 c115 -23 164
-73 126 -130 -35 -53 -71 -60 -291 -59 -180 0 -214 3 -335 28 -152 32 -190 47
-190 76 0 36 61 60 245 95 96 18 330 13 445 -10z m-3204 -80 c38 -40 55 -102
33 -117 -8 -5 -41 -7 -73 -5 -49 3 -63 8 -83 31 -30 35 -29 71 2 101 36 37 80
33 121 -10z m5650 -620 c86 -91 133 -301 94 -420 -16 -52 -85 -167 -122 -207
-28 -30 -30 -31 -98 -26 -79 6 -109 22 -145 76 -61 93 -74 317 -25 447 26 69
85 135 121 135 13 1 38 7 54 15 52 24 84 19 121 -20z m-5159 -227 c149 -47
178 -85 177 -238 -1 -92 -20 -173 -61 -255 -56 -110 -102 -147 -183 -147 -55
0 -93 18 -136 64 -42 44 -57 76 -90 189 -24 85 -26 99 -15 150 6 30 11 68 11
85 0 38 40 122 74 156 45 44 74 43 223 -4z m1989 -351 c44 -23 103 -92 130
-153 77 -174 43 -391 -73 -464 -209 -133 -444 30 -446 310 -1 109 23 193 66
233 38 35 133 84 185 95 44 10 95 2 138 -21z m2544 -589 c94 -65 143 -273 106
-449 -27 -123 -57 -164 -169 -223 -91 -48 -116 -47 -173 6 -155 143 -165 435
-20 605 69 80 187 108 256 61z m-4481 -46 c87 -70 137 -218 129 -383 -10 -203
-97 -287 -260 -249 -109 26 -157 77 -183 198 -31 150 -15 308 39 381 68 92
196 117 275 53z m1944 -422 c126 -39 169 -118 169 -311 0 -217 -29 -276 -153
-318 -146 -49 -240 -11 -323 131 -62 107 -74 279 -27 378 19 42 93 110 141
132 30 14 130 7 193 -12z m-1925 -631 c34 -17 55 -39 92 -96 67 -101 74 -128
67 -247 -9 -164 -65 -299 -146 -353 -44 -29 -70 -29 -136 3 -126 59 -215 222
-215 394 0 128 48 217 157 289 57 38 116 41 181 10z m3710 -303 c102 -36 137
-87 158 -228 15 -100 15 -105 -6 -185 -42 -155 -117 -243 -207 -243 -52 0 -87
16 -129 62 -81 85 -113 228 -80 358 45 179 65 222 111 241 32 13 109 10 153
-5z m1878 -178 c-21 -101 -22 -96 31 -147 30 -29 73 -57 113 -73 36 -15 92
-38 125 -51 33 -14 96 -41 140 -60 44 -19 213 -90 375 -156 339 -140 346 -143
500 -209 232 -100 362 -153 457 -188 54 -19 114 -42 133 -49 19 -8 51 -14 70
-15 19 0 62 -7 95 -15 76 -19 617 -31 755 -17 351 36 528 69 1065 202 154 38
336 82 405 98 69 16 337 84 595 152 l470 122 145 5 145 5 88 -49 c110 -61 157
-98 157 -124 0 -30 -25 -33 -93 -11 -87 28 -178 36 -277 22 -151 -20 -1738
-376 -2143 -480 -247 -63 -500 -206 -608 -342 -38 -48 -126 -192 -168 -275
-12 -24 -33 -85 -48 -135 l-27 -93 -4 -650 c-3 -425 1 -784 10 -1035 7 -216
12 -596 10 -864 l-3 -480 -52 -94 c-58 -106 -147 -205 -220 -247 -54 -31 -168
-47 -182 -25 -13 21 15 56 76 95 57 36 63 44 115 149 l54 110 0 386 c0 212 -5
570 -10 795 -5 226 -14 709 -20 1075 -13 802 -22 1013 -50 1102 -34 109 -144
245 -303 372 -89 71 -256 150 -712 336 -132 54 -331 137 -442 184 -112 47
-287 120 -390 162 -104 42 -248 103 -322 136 -121 54 -144 61 -237 71 l-102
10 -54 -48 c-61 -55 -90 -70 -114 -61 -38 15 20 173 93 256 51 56 126 102 240
145 115 44 127 45 119 3z m-3625 -29 c68 -15 122 -63 145 -131 23 -70 15 -230
-15 -309 -44 -115 -104 -173 -197 -190 -55 -10 -60 -9 -123 23 -65 32 -67 35
-113 127 -44 85 -48 99 -48 165 0 144 92 267 235 312 51 16 54 16 116 3z
m6589 -44 c91 -21 157 -51 171 -77 41 -76 -232 -134 -520 -109 -204 17 -291
44 -291 92 0 45 99 89 245 108 98 14 306 6 395 -14z m-2835 -1014 c25 -15 37
-36 65 -117 30 -88 34 -110 33 -199 -2 -181 -51 -277 -154 -305 -85 -23 -175
42 -220 159 -45 115 -22 333 43 416 47 60 170 85 233 46z m-2532 -56 c30 -26
69 -50 92 -56 61 -15 65 -17 72 -35 16 -42 -76 -69 -144 -43 -59 22 -113 93
-113 149 0 44 31 39 93 -15z m7762 -294 c56 -25 118 -97 145 -167 19 -47 23
-79 23 -154 0 -127 -24 -191 -104 -273 l-58 -60 -72 7 c-158 14 -202 42 -238
148 -36 107 -24 233 36 354 69 142 163 193 268 145z m-3676 -275 c40 -21 98
-111 116 -181 25 -99 29 -182 11 -274 -9 -46 -16 -85 -16 -87 0 -11 -77 -87
-101 -100 -36 -18 -102 -18 -138 0 -36 19 -95 85 -121 135 -49 97 -62 264 -30
374 30 103 190 179 279 133z m1826 -149 c86 -48 139 -172 138 -322 -2 -153
-51 -267 -146 -336 -40 -29 -46 -31 -109 -26 -110 9 -143 36 -189 157 -35 92
-45 170 -31 252 40 229 194 356 337 275z m-2629 -561 c190 -89 247 -430 98
-595 l-46 -51 -72 0 c-100 0 -128 17 -201 125 l-60 88 1 106 c0 84 5 118 22
161 48 122 111 190 177 190 17 0 53 -11 81 -24z m-812 -820 c182 -106 210
-463 44 -556 -33 -18 -51 -22 -108 -18 -59 3 -74 8 -107 34 -84 68 -123 211
-103 374 12 103 33 164 64 186 34 25 152 14 210 -20z m5316 -297 c74 -33 107
-73 137 -164 34 -105 37 -220 7 -285 -27 -58 -103 -136 -157 -160 -90 -41
-200 -12 -244 65 -80 143 -37 480 70 545 43 27 127 26 187 -1z m-3730 -369
c51 -36 118 -135 140 -207 24 -79 27 -207 5 -280 -31 -103 -98 -163 -186 -163
-227 -1 -342 401 -172 600 53 62 90 82 140 77 22 -2 56 -15 73 -27z m1929
-124 c70 -37 122 -135 143 -270 16 -109 -18 -220 -98 -315 -47 -57 -107 -84
-195 -89 -73 -4 -82 -2 -119 21 -139 93 -161 408 -38 557 70 85 231 135 307
96z m-771 -1241 c38 -20 99 -42 136 -49 96 -20 121 -48 74 -80 -27 -19 -119
-21 -169 -5 -71 24 -139 96 -139 147 0 30 17 28 98 -13z"/>
</g>
</svg>
