<svg width="25" height="24" viewBox="0 0 25 24" fill="none" xmlns="http://www.w3.org/2000/svg">
<path fill-rule="evenodd" clip-rule="evenodd" d="M13.6501 2.0001C13.6501 1.36497 13.1352 0.850098 12.5001 0.850098C11.865 0.850098 11.3501 1.36497 11.3501 2.0001V4.0001C11.3501 4.63523 11.865 5.1501 12.5001 5.1501C13.1352 5.1501 13.6501 4.63523 13.6501 4.0001V2.0001ZM18.4959 3.91532C18.8136 3.36533 18.6252 2.66198 18.0752 2.34434C17.5252 2.0267 16.8219 2.21506 16.5042 2.76505L15.5042 4.49655C15.1866 5.04654 15.375 5.7499 15.925 6.06754C16.475 6.38518 17.1783 6.19682 17.4959 5.64682L18.4959 3.91532ZM22.156 6.42509C22.4736 6.97512 22.2851 7.67845 21.7351 7.99602L20.0031 8.99602C19.4531 9.31359 18.7497 9.12514 18.4322 8.57511C18.1146 8.02508 18.303 7.32175 18.8531 7.00418L20.5851 6.00418C21.1351 5.6866 21.8384 5.87505 22.156 6.42509ZM20.5001 10.8501C19.865 10.8501 19.3501 11.365 19.3501 12.0001C19.3501 12.6352 19.865 13.1501 20.5001 13.1501H22.5001C23.1352 13.1501 23.6501 12.6352 23.6501 12.0001C23.6501 11.365 23.1352 10.8501 22.5001 10.8501H20.5001ZM18.4322 15.4251C18.7497 14.8751 19.4531 14.6866 20.0031 15.0042L21.7351 16.0042C22.2851 16.3217 22.4736 17.0251 22.156 17.5751C21.8384 18.1251 21.1351 18.3136 20.5851 17.996L18.8531 16.996C18.303 16.6784 18.1146 15.9751 18.4322 15.4251ZM17.496 18.3531C17.1784 17.803 16.4751 17.6146 15.9251 17.9322C15.3751 18.2497 15.1866 18.9531 15.5042 19.5031L16.5042 21.2351C16.8217 21.7851 17.5251 21.9736 18.0751 21.656C18.6251 21.3384 18.8136 20.6351 18.496 20.0851L17.496 18.3531ZM12.5001 18.8501C13.1352 18.8501 13.6501 19.365 13.6501 20.0001V22.0001C13.6501 22.6352 13.1352 23.1501 12.5001 23.1501C11.865 23.1501 11.3501 22.6352 11.3501 22.0001V20.0001C11.3501 19.365 11.865 18.8501 12.5001 18.8501ZM9.49602 19.5031C9.81359 18.9531 9.62514 18.2497 9.07511 17.9322C8.52508 17.6146 7.82175 17.803 7.50418 18.3531L6.50418 20.0851C6.1866 20.6351 6.37505 21.3384 6.92509 21.656C7.47512 21.9736 8.17845 21.7851 8.49602 21.2351L9.49602 19.5031ZM6.56741 15.425C6.88505 15.975 6.69669 16.6783 6.1467 16.9959L4.4152 17.9959C3.86521 18.3136 3.16185 18.1252 2.84421 17.5752C2.52657 17.0252 2.71493 16.3219 3.26493 16.0042L4.99643 15.0042C5.54642 14.6866 6.24977 14.875 6.56741 15.425ZM2.5001 10.8501C1.86497 10.8501 1.3501 11.365 1.3501 12.0001C1.3501 12.6352 1.86497 13.1501 2.5001 13.1501H4.5001C5.13523 13.1501 5.6501 12.6352 5.6501 12.0001C5.6501 11.365 5.13523 10.8501 4.5001 10.8501H2.5001ZM2.84421 6.42496C3.16185 5.87497 3.86521 5.68661 4.4152 6.00425L6.1467 7.00425C6.69669 7.32189 6.88505 8.02524 6.56741 8.57523C6.24977 9.12523 5.54642 9.31359 4.99643 8.99595L3.26493 7.99595C2.71493 7.67831 2.52657 6.97495 2.84421 6.42496ZM8.49595 2.76505C8.17831 2.21506 7.47495 2.0267 6.92496 2.34434C6.37497 2.66198 6.18661 3.36533 6.50425 3.91532L7.50425 5.64682C7.82189 6.19682 8.52524 6.38518 9.07523 6.06754C9.62523 5.7499 9.81359 5.04654 9.49595 4.49655L8.49595 2.76505Z" fill="white"/>
</svg>
