<svg width="34" height="34" viewBox="0 0 34 34" fill="none" xmlns="http://www.w3.org/2000/svg">
<path d="M0 30.6002C5.63333 30.6002 10.2 26.0335 10.2 20.4002C10.2 14.7669 5.63333 10.2002 0 10.2002V17.3402C1.68998 17.3402 3.05998 18.7102 3.05998 20.4002C3.05998 22.0902 1.68998 23.4602 0 23.4602V30.6002Z" fill="#76DECC"/>
<path d="M33.9997 13.6001C32.2567 13.0479 30.4005 12.75 28.4747 12.75C18.3816 12.75 10.1997 20.9321 10.1997 31.025C10.1997 32.0381 10.2821 33.0319 10.4406 34H21.7955C21.3901 33.0913 21.1648 32.0845 21.1648 31.025C21.1648 26.9878 24.4375 23.715 28.4747 23.715C30.6812 23.715 32.6593 24.6927 33.9997 26.2384V13.6001Z" fill="#EA6CBC"/>
<path d="M1.79346 0C2.63911 7.64992 9.12477 13.6001 17.0001 13.6001C24.8753 13.6001 31.361 7.64992 32.2067 0H21.2649C20.5894 1.69339 18.9344 2.88999 17.0001 2.88999C15.0657 2.88999 13.4108 1.69339 12.7352 0H1.79346Z" fill="#2A27C9"/>
</svg>
